<?xml version="1.0" standalone="no"?><svg xmlns="http://www.w3.org/2000/svg" viewBox="0 0 1440 320"><path fill="#3196ce" fill-opacity="1" d="M0,160L10,160C20,160,40,160,60,170.7C80,181,100,203,120,197.3C140,192,160,160,180,122.7C200,85,220,43,240,74.7C260,107,280,213,300,245.3C320,277,340,235,360,208C380,181,400,171,420,154.7C440,139,460,117,480,96C500,75,520,53,540,74.7C560,96,580,160,600,160C620,160,640,96,660,64C680,32,700,32,720,74.7C740,117,760,203,780,229.3C800,256,820,224,840,218.7C860,213,880,235,900,218.7C920,203,940,149,960,112C980,75,1000,53,1020,58.7C1040,64,1060,96,1080,101.3C1100,107,1120,85,1140,85.3C1160,85,1180,107,1200,138.7C1220,171,1240,213,1260,224C1280,235,1300,213,1320,218.7C1340,224,1360,256,1380,266.7C1400,277,1420,267,1430,261.3L1440,256L1440,0L1430,0C1420,0,1400,0,1380,0C1360,0,1340,0,1320,0C1300,0,1280,0,1260,0C1240,0,1220,0,1200,0C1180,0,1160,0,1140,0C1120,0,1100,0,1080,0C1060,0,1040,0,1020,0C1000,0,980,0,960,0C940,0,920,0,900,0C880,0,860,0,840,0C820,0,800,0,780,0C760,0,740,0,720,0C700,0,680,0,660,0C640,0,620,0,600,0C580,0,560,0,540,0C520,0,500,0,480,0C460,0,440,0,420,0C400,0,380,0,360,0C340,0,320,0,300,0C280,0,260,0,240,0C220,0,200,0,180,0C160,0,140,0,120,0C100,0,80,0,60,0C40,0,20,0,10,0L0,0Z"></path></svg>